<svg
  width="300"
  height="210"
  viewBox="0 0 300 210"
  fill="none"
  xmlns="http://www.w3.org/2000/svg"
  role="img"
  aria-label="Most Used Languages"
>

  <style>
    .header {
      font: 600 18px 'Segoe UI', Ubuntu, Sans-Serif;
      fill: #58a6ff;
    }

    .lang {
      font: 400 11px 'Segoe UI', Ubuntu, Sans-Serif;
      fill: #c9d1d9;
    }
  </style>

  <rect
    x="0"
    y="0"
    width="300"
    height="210"
    rx="5"
    fill="#0d1117"
  />

  <text
    x="6"
    y="35"
    class="header"
  >Most Used Languages</text>

  <!-- Combined language progress bar -->
  <rect
    x="6"
    y="64"
    width="288"
    height="9"
    rx="5"
    fill="#30363d"
  />

  <rect x="6.00" y="64" width="112.83" height="9" fill="#3572A5" rx="5" ry="5"/><rect x="118.83" y="64" width="108.07" height="9" fill="#f1e05a"/><rect x="226.90" y="64" width="28.84" height="9" fill="#3178c6"/><rect x="255.74" y="64" width="8.60" height="9" fill="#563d7c"/><rect x="264.34" y="64" width="7.78" height="9" fill="#00ADD8"/><rect x="272.12" y="64" width="21.88" height="9" fill="#f34b7d"/>

  <!-- Language labels -->
  
        <circle
          cx="6"
          cy="99"
          r="5"
          fill="#3572A5"
        />

        <text
          x="19"
          y="103"
          class="lang"
        >Python 39.18%</text>
        
        <circle
          cx="174"
          cy="99"
          r="5"
          fill="#f1e05a"
        />

        <text
          x="187"
          y="103"
          class="lang"
        >JavaScript 37.53%</text>
        
        <circle
          cx="6"
          cy="128"
          r="5"
          fill="#3178c6"
        />

        <text
          x="19"
          y="132"
          class="lang"
        >TypeScript 10.01%</text>
        
        <circle
          cx="174"
          cy="128"
          r="5"
          fill="#563d7c"
        />

        <text
          x="187"
          y="132"
          class="lang"
        >CSS 2.99%</text>
        
        <circle
          cx="6"
          cy="157"
          r="5"
          fill="#00ADD8"
        />

        <text
          x="19"
          y="161"
          class="lang"
        >Go 2.70%</text>
        
        <circle
          cx="174"
          cy="157"
          r="5"
          fill="#f34b7d"
        />

        <text
          x="187"
          y="161"
          class="lang"
        >C++ 2.65%</text>
        

</svg>
